<svg width="25" height="29" viewBox="0 0 25 29" fill="none" xmlns="http://www.w3.org/2000/svg">
<path d="M0 5.35713C0 4.37108 0.799665 3.57141 1.78571 3.57141H23.2143C24.202 3.57141 25 4.37108 25 5.35713C25 6.34485 24.202 7.14284 23.2143 7.14284H1.78571C0.799665 7.14284 0 6.34485 0 5.35713ZM0 14.2857C0 13.298 0.799665 12.5 1.78571 12.5H23.2143C24.202 12.5 25 13.298 25 14.2857C25 15.2734 24.202 16.0714 23.2143 16.0714H1.78571C0.799665 16.0714 0 15.2734 0 14.2857ZM23.2143 25H1.78571C0.799665 25 0 24.202 0 23.2143C0 22.2265 0.799665 21.4286 1.78571 21.4286H23.2143C24.202 21.4286 25 22.2265 25 23.2143C25 24.202 24.202 25 23.2143 25Z" fill="#3C7BFF"/>
</svg>
