<svg width="30" height="30" viewBox="0 0 30 30" fill="none" xmlns="http://www.w3.org/2000/svg">
<g clip-path="url(#clip0_1_319)">
<path d="M22.5078 0H18.6056C14.2352 0 11.3944 2.90323 11.3944 7.39854V10.8012H7.49221C7.14882 10.8012 6.86786 11.0822 6.86786 11.4256V16.358C6.86786 16.7014 7.14882 16.9823 7.49221 16.9823H11.3944V29.4381C11.3944 29.7815 11.6754 30.0624 12.0187 30.0624H17.1384C17.4818 30.0624 17.7628 29.7815 17.7628 29.4381V16.9511H22.3517C22.6951 16.9511 22.9761 16.6701 22.9761 16.3267V11.3944C22.9761 11.2383 22.9136 11.0822 22.7888 10.9573C22.6639 10.8325 22.5078 10.77 22.3517 10.77H17.7315V7.89802C17.7315 6.52445 18.0749 5.80645 19.8543 5.80645H22.4766C22.82 5.80645 23.1009 5.5255 23.1009 5.1821V0.62435C23.1009 0.280957 22.8512 0 22.5078 0Z" fill="white"/>
</g>
<defs>
<clipPath id="clip0_1_319">
<rect width="30" height="30" fill="white"/>
</clipPath>
</defs>
</svg>
