<svg width="30" height="30" viewBox="0 0 30 30" fill="none" xmlns="http://www.w3.org/2000/svg">
<g clip-path="url(#clip0_1_309)">
<path d="M20.625 0H9.375C4.19531 0 0 4.19531 0 9.375V20.625C0 25.8047 4.19531 30 9.375 30H20.625C25.8047 30 30 25.8047 30 20.625V9.375C30 4.19531 25.8047 0 20.625 0ZM27.1875 20.625C27.1875 24.2461 24.2461 27.1875 20.625 27.1875H9.375C5.75391 27.1875 2.8125 24.2461 2.8125 20.625V9.375C2.8125 5.75391 5.75391 2.8125 9.375 2.8125H20.625C24.2461 2.8125 27.1875 5.75391 27.1875 9.375V20.625Z" fill="white"/>
<path d="M15 7.5C10.8574 7.5 7.5 10.8574 7.5 15C7.5 19.1426 10.8574 22.5 15 22.5C19.1426 22.5 22.5 19.1426 22.5 15C22.5 10.8574 19.1426 7.5 15 7.5ZM15 19.6875C12.416 19.6875 10.3125 17.584 10.3125 15C10.3125 12.416 12.416 10.3125 15 10.3125C17.584 10.3125 19.6875 12.416 19.6875 15C19.6875 17.584 17.584 19.6875 15 19.6875Z" fill="white"/>
<path d="M23.0625 7.93945C23.6159 7.93945 24.0645 7.49086 24.0645 6.9375C24.0645 6.38414 23.6159 5.93555 23.0625 5.93555C22.5091 5.93555 22.0605 6.38414 22.0605 6.9375C22.0605 7.49086 22.5091 7.93945 23.0625 7.93945Z" fill="white"/>
</g>
<defs>
<clipPath id="clip0_1_309">
<rect width="30" height="30" fill="white"/>
</clipPath>
</defs>
</svg>
