<svg width="293" height="52" viewBox="0 0 293 52" fill="none" xmlns="http://www.w3.org/2000/svg">
<g clip-path="url(#clip0_58_1344)">
<path d="M25.1804 42.7655L17.1725 50.9241C16.1938 51.9103 14.5922 51.9103 13.6135 50.9241L2.0465 39.2689C1.06775 38.2827 1.06775 36.6689 2.0465 35.6827L12.0119 25.6414C16.8166 30.4827 22.7781 37.3862 25.0025 42.4069C25.0914 42.5862 25.1804 42.6758 25.1804 42.7655Z" fill="#FFDF22"/>
<path d="M55.3435 39.7172L43.7765 51.2827C42.7978 52.2689 41.1962 52.2689 40.2174 51.2827L32.2095 43.1241C32.2095 43.0344 32.2985 42.9448 32.3875 42.8551C34.7009 37.8344 40.5733 30.931 45.3781 26.0896L55.3435 36.131C56.3222 37.1172 56.3222 38.731 55.3435 39.7172Z" fill="#FFDF22"/>
<path d="M56.8561 10.7586L43.8655 23.9379C40.3064 27.5241 33.7221 34.7862 30.608 40.8828C30.43 41.2414 30.2521 41.6 30.0741 41.9586C29.8072 42.4966 29.3623 42.7655 28.8284 42.7655C28.2946 42.7655 27.8497 42.4966 27.5828 41.9586C27.4048 41.6 27.2269 41.2414 27.0489 40.8828C23.9347 34.6966 17.2615 27.5241 13.7914 23.9379L0.711819 10.7586C-0.177947 9.86207 -0.177947 8.42759 0.711819 7.53103L3.91498 4.30345C6.67325 1.43448 10.4103 0 14.1473 0C17.8843 0 21.5323 1.43448 24.3796 4.30345L26.0702 6.0069C26.8709 6.72414 27.8497 7.17241 28.8284 7.17241C29.8072 7.17241 30.8749 6.81379 31.5867 6.0069L33.0993 4.48276C35.9466 1.61379 39.6836 0.17931 43.5096 0.17931C47.2466 0.17931 51.0726 1.61379 53.9198 4.48276L56.945 7.53103C57.8348 8.33793 57.8348 9.86207 56.8561 10.7586Z" fill="#3C7BFF"/>
<path d="M80.079 39.8966C80.7018 39.5379 81.0577 38.9103 81.0577 38.1035C81.0577 36.8483 80.079 36.0414 78.6553 36.0414H75.1852V43.931H78.7443C80.2569 43.931 81.2357 43.1241 81.2357 41.7793C81.2357 40.9724 80.8798 40.2552 80.079 39.8966ZM76.4309 37.2069H78.4774C79.3671 37.2069 79.812 37.5655 79.812 38.2828C79.812 39 79.3671 39.3586 78.4774 39.3586H76.4309V37.2069ZM78.4774 42.8552H76.4309V40.5241H78.4774C79.4561 40.5241 79.901 40.8828 79.901 41.6897C79.99 42.4966 79.4561 42.8552 78.4774 42.8552Z" fill="#1D1D1B"/>
<path d="M85.4175 37.6552C83.549 37.6552 82.3033 39 82.3033 40.8827C82.3033 42.8552 83.549 44.1103 85.4175 44.1103C87.286 44.1103 88.5317 42.7655 88.5317 40.8827C88.5317 38.9103 87.375 37.6552 85.4175 37.6552ZM85.4175 43.0345C84.2608 43.0345 83.549 42.2276 83.549 40.8827C83.549 39.5379 84.2608 38.731 85.4175 38.731C86.5742 38.731 87.286 39.5379 87.286 40.8827C87.286 42.2276 86.5742 43.0345 85.4175 43.0345Z" fill="#1D1D1B"/>
<path d="M90.2223 40.9725C90.2223 42.6759 90.0443 42.8552 89.5104 42.8552H89.1545V43.9311C89.3325 43.9311 89.5105 43.9311 89.6884 43.9311C90.8451 43.9311 91.379 43.3035 91.379 41.0621V38.8207H93.9593V43.9311H95.205V37.7449H90.2223V40.9725V40.9725Z" fill="#1D1D1B"/>
<path d="M99.7428 37.6552C97.8743 37.6552 96.6286 39 96.6286 40.8827C96.6286 42.8552 97.8743 44.1103 99.7428 44.1103C101.611 44.1103 102.857 42.7655 102.857 40.8827C102.857 38.9103 101.7 37.6552 99.7428 37.6552ZM99.7428 43.0345C98.5861 43.0345 97.8743 42.2276 97.8743 40.8827C97.8743 39.5379 98.5861 38.731 99.7428 38.731C100.899 38.731 101.611 39.5379 101.611 40.8827C101.611 42.2276 100.899 43.0345 99.7428 43.0345Z" fill="#1D1D1B"/>
<path d="M103.302 38.8207H105.526V43.9311H106.772V38.8207H108.996V37.7449H103.302V38.8207Z" fill="#1D1D1B"/>
<path d="M112.466 37.6552C110.598 37.6552 109.441 39 109.441 40.8827C109.441 42.7655 110.509 44.1103 112.555 44.1103C113.89 44.1103 114.691 43.5724 115.225 43.0345L114.424 42.3172C114.068 42.7655 113.534 43.1241 112.555 43.1241C111.488 43.1241 110.776 42.4069 110.687 41.331H115.403C115.403 41.1517 115.403 41.062 115.403 40.9724C115.403 38.9103 114.246 37.6552 112.466 37.6552ZM110.598 40.2552C110.776 39.2689 111.399 38.6414 112.377 38.6414C113.267 38.6414 113.89 39.2689 114.068 40.2552H110.598Z" fill="#1D1D1B"/>
<path d="M120.029 37.6552C119.14 37.6552 118.428 38.0138 117.894 38.731L117.805 37.7448H116.737V45.9931H117.983V43.1241C118.428 43.7517 119.14 44.0207 120.029 44.0207C121.631 44.0207 122.699 42.6758 122.699 40.7931C122.788 38.9103 121.72 37.6552 120.029 37.6552ZM119.763 43.0345C118.695 43.0345 117.983 42.2276 117.983 40.8827C117.983 39.5379 118.695 38.731 119.763 38.731C120.83 38.731 121.542 39.5379 121.542 40.8827C121.542 42.2276 120.83 43.0345 119.763 43.0345Z" fill="#1D1D1B"/>
<path d="M126.881 38.731C127.681 38.731 128.215 39.1793 128.482 39.8965L129.639 39.5379C129.283 38.3724 128.215 37.6552 126.881 37.6552C125.012 37.6552 123.766 39 123.766 40.8827C123.766 42.7655 125.012 44.1103 126.881 44.1103C128.215 44.1103 129.283 43.3931 129.639 42.2276L128.482 41.8689C128.215 42.5862 127.681 43.0345 126.881 43.0345C125.724 43.0345 125.012 42.2276 125.012 40.8827C125.012 39.5379 125.724 38.731 126.881 38.731Z" fill="#1D1D1B"/>
<path d="M133.821 40.0759H132.13V37.7449H130.885V43.9311H133.821C135.155 43.9311 136.045 43.2138 136.045 41.9587C136.045 40.7931 135.155 40.0759 133.821 40.0759ZM133.732 42.9449H132.13V41.1518H133.732C134.444 41.1518 134.8 41.5104 134.8 42.0483C134.8 42.5863 134.355 42.9449 133.732 42.9449Z" fill="#1D1D1B"/>
<path d="M142.185 42.5863V40.3449H141.028L142.63 37.8345H141.295L139.871 40.2552H138.626V35.7725H137.38V43.9311H138.626V41.3311H141.028V42.7656C141.028 43.5725 141.473 43.9311 142.185 43.9311H142.718V42.8552H142.452C142.363 42.8552 142.185 42.7656 142.185 42.5863Z" fill="#1D1D1B"/>
<path d="M148.68 42.4965V39.7172C148.68 38.462 147.79 37.6552 146.278 37.6552C145.21 37.6552 144.32 38.0138 143.608 38.731L144.409 39.5379C144.943 39 145.566 38.731 146.278 38.731C147.078 38.731 147.612 39.0896 147.612 39.5379C147.612 39.9862 147.167 40.0758 146.278 40.2552C145.032 40.4345 143.608 40.7931 143.608 42.3172C143.608 43.3931 144.409 44.2 145.655 44.2C146.545 44.2 147.345 43.7517 147.79 43.1241C147.879 43.8414 148.235 44.1103 148.947 44.1103C149.125 44.1103 149.303 44.1103 149.392 44.1103V43.0345H149.125C148.769 42.8551 148.68 42.7655 148.68 42.4965ZM147.434 41.6C147.434 42.4069 146.633 43.0345 145.655 43.0345C145.032 43.0345 144.676 42.7655 144.676 42.1379C144.676 41.331 145.477 41.2414 146.278 41.062C146.9 40.9724 147.256 40.8827 147.434 40.7931V41.6V41.6Z" fill="#1D1D1B"/>
<path d="M156.599 38.731C157.4 38.731 157.934 39.1793 158.2 39.8965L159.357 39.5379C159.001 38.3724 157.934 37.6552 156.599 37.6552C154.73 37.6552 153.485 39 153.485 40.8827C153.485 42.7655 154.73 44.1103 156.599 44.1103C157.934 44.1103 159.001 43.3931 159.357 42.2276L158.2 41.8689C157.934 42.5862 157.4 43.0345 156.599 43.0345C155.442 43.0345 154.73 42.2276 154.73 40.8827C154.73 39.5379 155.442 38.731 156.599 38.731Z" fill="#1D1D1B"/>
<path d="M160.603 43.9311H161.848V38.8207H164.874V43.9311H166.03V37.7449H160.603V43.9311Z" fill="#1D1D1B"/>
<path d="M169.411 35.6827H168.077V36.9379H169.411V35.6827Z" fill="#1D1D1B"/>
<path d="M169.323 37.7449H168.077V43.9311H169.323V37.7449Z" fill="#1D1D1B"/>
<path d="M171.725 40.9725C171.725 42.6759 171.547 42.8552 171.013 42.8552H170.657V43.9311C170.835 43.9311 171.013 43.9311 171.191 43.9311C172.348 43.9311 172.882 43.3035 172.882 41.0621V38.8207H175.462V43.9311H176.708V37.7449H171.725V40.9725Z" fill="#1D1D1B"/>
<path d="M181.512 40.0759H179.822V37.7449H178.576V43.9311H181.512C182.847 43.9311 183.737 43.2138 183.737 41.9587C183.737 40.7931 182.847 40.0759 181.512 40.0759ZM181.334 42.9449H179.733V41.1518H181.334C182.046 41.1518 182.402 41.5104 182.402 42.0483C182.491 42.5863 182.046 42.9449 181.334 42.9449Z" fill="#1D1D1B"/>
<path d="M189.253 40.1656H186.317V37.7449H185.071V43.9311H186.317V41.3311H189.253V43.9311H190.499V37.7449H189.253V40.1656Z" fill="#1D1D1B"/>
<path d="M195.126 37.6552C193.257 37.6552 192.012 39 192.012 40.8827C192.012 42.8552 193.257 44.1103 195.126 44.1103C196.994 44.1103 198.24 42.7655 198.24 40.8827C198.24 38.9103 196.994 37.6552 195.126 37.6552ZM195.126 43.0345C193.969 43.0345 193.257 42.2276 193.257 40.8827C193.257 39.5379 193.969 38.731 195.126 38.731C196.282 38.731 196.994 39.5379 196.994 40.8827C196.994 42.2276 196.282 43.0345 195.126 43.0345Z" fill="#1D1D1B"/>
<path d="M198.596 38.8207H200.82V43.9311H202.066V38.8207H204.29V37.7449H198.596V38.8207Z" fill="#1D1D1B"/>
<path d="M209.896 42.4965V39.7172C209.896 38.462 209.006 37.6552 207.493 37.6552C206.426 37.6552 205.536 38.0138 204.824 38.731L205.625 39.5379C206.159 39 206.782 38.731 207.493 38.731C208.294 38.731 208.828 39.0896 208.828 39.5379C208.828 39.9862 208.383 40.0758 207.493 40.2552C206.248 40.4345 204.824 40.7931 204.824 42.3172C204.824 43.3931 205.625 44.2 206.871 44.2C207.76 44.2 208.561 43.7517 209.006 43.1241C209.095 43.8414 209.451 44.1103 210.163 44.1103C210.341 44.1103 210.519 44.1103 210.608 44.1103V43.0345H210.341C210.074 42.8551 209.896 42.7655 209.896 42.4965ZM208.739 41.6C208.739 42.4069 207.938 43.0345 206.96 43.0345C206.337 43.0345 205.981 42.7655 205.981 42.1379C205.981 41.331 206.782 41.2414 207.582 41.062C208.205 40.9724 208.561 40.8827 208.739 40.7931V41.6V41.6Z" fill="#1D1D1B"/>
<path d="M106.594 28.0621H109.975L102.323 8.96558H98.4971L90.7562 28.0621H94.0483L95.7389 23.669H104.814L106.594 28.0621ZM96.8956 20.8001L100.366 11.8345L103.836 20.8001H96.8956Z" fill="#1D1D1B"/>
<path d="M127.859 14.7931C127.859 11.2069 125.279 8.87585 121.097 8.87585H113.178V28.0621H116.292V20.7103H121.097C125.279 20.8 127.859 18.469 127.859 14.7931ZM116.292 18.0207V11.6552H120.652C123.233 11.6552 124.567 12.731 124.567 14.7931C124.567 16.9448 123.233 17.931 120.652 17.931H116.292V18.0207Z" fill="#1D1D1B"/>
<path d="M139.159 8.96558H135.333L127.681 28.1518H130.974L132.664 23.7587H141.74L143.43 28.1518H146.811L139.159 8.96558ZM133.732 20.8001L137.202 11.8345L140.672 20.8001H133.732Z" fill="#1D1D1B"/>
<path d="M165.319 8.96558H150.548V17.4828C150.548 21.1587 150.371 23.669 149.926 25.1932H147.968V32.1863H151.082V28.1518H164.518V32.1863H167.543V25.1932H165.319V8.96558V8.96558ZM162.204 25.1932H153.04C153.396 23.2208 153.663 20.3518 153.663 17.4828V11.9242H162.204V25.1932V25.1932Z" fill="#1D1D1B"/>
<path d="M187.207 28.0621V8.96558H184.182L174.483 23.1311V8.96558H171.369V28.0621H174.394L184.182 13.7173V28.0621H187.207Z" fill="#1D1D1B"/>
<path d="M82.8372 25.8207C79.723 25.8207 78.0325 23.4 77.9435 21.0689L75.5411 21.1586C75.6301 24.6551 78.3884 28.2413 82.8372 28.2413C87.1081 28.2413 89.9553 25.5517 89.9553 21.6069C89.9553 19.5448 89.3325 17.8413 87.9979 16.7655C86.9301 15.7793 85.5065 15.4207 84.3498 15.2413L89.5105 8.51721H75.897V10.9379H84.6167L79.1892 18.0207L82.1254 17.5724C82.1254 17.5724 84.8837 17.2138 86.3963 18.5586C87.1971 19.1862 87.553 20.262 87.553 21.6069C87.553 24.2069 85.7734 25.8207 82.8372 25.8207Z" fill="#1D1D1B"/>
<path d="M225.912 23.1311V8.96558H222.708V28.0621H225.823L235.521 13.7173V28.0621H238.635V8.96558H235.521L225.912 23.1311Z" fill="#1D1D1B"/>
<path d="M242.016 11.8345H248.779V28.0621H251.982V11.8345H258.655V8.96558H242.016V11.8345Z" fill="#1D1D1B"/>
<path d="M259.723 11.8345H266.485V28.0621H269.688V11.8345H276.45V8.96558H259.723V11.8345Z" fill="#1D1D1B"/>
<path d="M285.081 8.96558C280.988 8.96558 278.408 11.1173 278.408 14.4345C278.408 16.5863 279.654 18.2001 281.611 19.007H279.031V24.207C279.031 24.7449 278.675 25.1932 278.052 25.1932H277.429V28.1518H279.031C280.988 28.1518 282.145 26.9863 282.145 24.8345V20.7104H289.886V28.1518H293V8.96558H285.081ZM289.886 18.0207H285.526C282.946 18.0207 281.611 17.0345 281.611 14.8828C281.611 12.7311 282.946 11.7449 285.526 11.7449H289.886V18.0207Z" fill="#1D1D1B"/>
<path d="M219.149 10.5793L218.082 8.4276C215.323 9.77243 210.341 14.9724 209.451 17.4828V8.24829H207.049V17.4828C206.159 14.9724 201.176 9.86208 198.418 8.4276L197.35 10.5793C200.197 12.0138 204.379 16.9448 204.824 18.1104C204.468 19.3655 200.197 24.2069 197.35 25.6414L198.418 27.7931C201.265 26.3586 206.159 21.3379 207.049 18.8276V28.0621H209.451V18.9173C210.341 21.5173 215.234 26.4483 218.082 27.8828L219.149 25.731C216.302 24.2966 212.031 19.3655 211.675 18.2C212.031 17.0345 216.213 12.1035 219.149 10.5793Z" fill="#1D1D1B"/>
</g>
<defs>
<clipPath id="clip0_58_1344">
<rect width="293" height="52" fill="white"/>
</clipPath>
</defs>
</svg>
